<?xml version="1.0" standalone="no"?>
<!DOCTYPE svg PUBLIC "-//W3C//DTD SVG 20010904//EN"
 "http://www.w3.org/TR/2001/REC-SVG-20010904/DTD/svg10.dtd">
<svg version="1.0" xmlns="http://www.w3.org/2000/svg"
 width="125.000000pt" height="125.000000pt" viewBox="0 0 125.000000 125.000000"
 preserveAspectRatio="xMidYMid meet">
<metadata>
Created by potrace 1.11, written by Peter Selinger 2001-2013
</metadata>
<g transform="translate(0.000000,125.000000) scale(0.100000,-0.100000)"
fill="#000000" stroke="none">
<path d="M863 1243 c-9 -3 -7 -10 5 -23 10 -11 32 -48 50 -82 18 -35 53 -99
78 -143 24 -44 49 -92 55 -107 6 -16 15 -28 21 -28 5 0 6 -4 3 -10 -3 -5 -1
-10 4 -10 6 0 10 -3 10 -7 -4 -22 3 -33 17 -33 13 0 14 3 5 14 -6 8 -11 18
-10 22 3 10 -16 60 -32 88 -8 14 -8 16 3 11 10 -6 10 -5 1 5 -6 7 -9 19 -6 26
3 8 1 14 -5 14 -6 0 -13 18 -17 40 -4 22 -10 40 -15 40 -4 0 -6 9 -3 20 3 12
0 20 -8 20 -7 0 -10 3 -6 6 19 19 -62 132 -97 135 -6 0 -18 2 -26 3 -8 2 -20
1 -27 -1z"/>
<path d="M664 1199 c-3 -5 -10 -7 -15 -4 -5 4 -9 1 -9 -4 0 -6 4 -11 8 -11 4
0 28 -19 52 -41 25 -23 63 -54 84 -70 21 -16 37 -29 33 -29 -3 0 8 -13 23 -30
15 -16 33 -30 39 -30 6 0 11 -3 11 -7 0 -5 24 -28 52 -53 48 -41 51 -42 30
-12 -13 17 -28 32 -33 32 -6 0 -8 4 -5 9 3 5 -6 21 -19 37 -40 46 -45 53 -45
64 0 5 -4 10 -8 10 -4 0 -16 14 -26 30 -9 17 -22 28 -27 24 -5 -3 -9 -2 -8 3
3 17 -14 53 -22 47 -5 -3 -9 -1 -9 5 0 24 -93 50 -106 30z"/>
<path d="M472 1118 c-7 -7 -12 -8 -12 -4 0 5 -7 3 -15 -4 -8 -7 -15 -10 -15
-7 0 3 -31 -5 -70 -18 -38 -13 -70 -21 -70 -18 0 3 -6 1 -12 -5 -16 -12 -98
-36 -115 -33 -7 1 -13 -3 -13 -9 0 -6 -6 -10 -13 -9 -27 5 -110 -46 -113 -69
0 -4 -3 -14 -7 -22 -7 -18 -10 -38 -8 -62 1 -14 7 -12 29 12 16 16 32 27 35
23 4 -3 7 -1 7 5 0 7 3 11 8 10 11 -3 102 45 102 53 0 4 13 10 30 14 17 4 30
10 30 14 0 3 20 15 45 26 25 11 45 24 45 29 0 5 3 7 6 3 3 -3 28 8 55 24 28
16 53 29 57 29 11 1 47 30 36 30 -6 0 -15 -5 -22 -12z"/>
<path d="M462 997 c-67 -67 -122 -125 -122 -129 0 -5 107 -8 238 -8 206 0 242
-2 272 -18 46 -23 62 -55 57 -120 -5 -70 -37 -102 -110 -111 l-52 -6 1 -52 c1
-49 0 -51 -27 -55 -16 -3 -32 -2 -37 1 -5 3 -8 45 -8 94 l0 87 71 0 c78 0 95
9 95 51 0 55 -17 60 -183 57 l-152 -3 -5 -195 -5 -195 -32 -3 -33 -3 0 200 0
201 -88 0 -88 0 -62 -63 c-56 -56 -62 -67 -62 -104 0 -40 4 -45 227 -267 289
-288 257 -281 438 -100 69 69 124 128 121 131 -2 3 -87 5 -188 5 l-183 0 1
172 c1 94 2 177 3 184 0 7 15 12 36 12 l35 0 0 -150 0 -150 191 0 191 0 59 62
c53 56 59 66 59 105 0 42 -1 44 -227 268 -288 284 -256 277 -431 102z"/>
<path d="M340 972 c0 -4 -12 -15 -27 -24 -16 -9 -40 -29 -55 -43 -16 -14 -28
-23 -28 -20 0 3 -9 -3 -19 -12 -33 -30 -50 -43 -56 -43 -4 0 -12 -6 -20 -12
-7 -7 -25 -22 -40 -33 -42 -30 -63 -97 -39 -129 12 -17 13 -17 22 1 11 19 78
96 152 174 99 103 135 149 115 149 -3 0 -5 -4 -5 -8z"/>
<path d="M1110 785 c0 -5 5 -17 10 -25 5 -8 10 -10 10 -5 0 6 -5 17 -10 25 -5
8 -10 11 -10 5z"/>
<path d="M1180 610 c0 -8 -14 -31 -31 -50 -49 -57 -170 -190 -221 -242 -52
-53 -56 -61 -33 -52 8 4 13 10 10 14 -3 4 8 13 24 20 16 6 42 25 58 41 15 15
33 29 39 29 6 0 23 11 38 25 14 13 26 22 26 19 0 -3 6 1 14 8 8 7 11 17 8 22
-3 5 0 6 5 3 6 -4 27 8 47 27 41 37 53 86 30 127 -8 15 -13 18 -14 9z"/>
<path d="M137 468 c-2 -7 0 -20 4 -28 4 -8 13 -35 20 -60 16 -57 15 -52 22
-70 13 -33 67 -217 67 -229 0 -7 5 -9 10 -6 6 3 10 0 10 -7 0 -15 27 -40 55
-52 23 -10 75 -14 75 -6 0 10 -20 35 -20 25 0 -5 -19 26 -42 70 -22 44 -45 83
-50 86 -5 3 -10 10 -10 15 -1 16 -11 39 -29 65 -10 14 -16 29 -12 33 3 3 1 6
-5 6 -7 0 -12 7 -12 16 0 8 -4 12 -10 9 -5 -3 -7 0 -4 8 3 8 -1 21 -8 28 -8 8
-20 29 -27 47 -7 17 -17 32 -22 32 -5 0 -6 7 -3 15 4 8 4 15 1 15 -3 0 -7 -6
-10 -12z"/>
<path d="M1224 386 c-3 -9 -10 -14 -14 -11 -5 3 -11 1 -15 -5 -6 -10 -135 -85
-147 -85 -3 0 -10 -4 -15 -8 -7 -8 -58 -31 -81 -38 -4 -2 -13 -9 -20 -16 -7
-7 -20 -13 -28 -13 -8 0 -12 -4 -9 -10 3 -5 1 -10 -6 -10 -15 0 -97 -39 -103
-49 -3 -4 4 -7 15 -7 10 0 19 4 19 8 0 4 8 8 18 8 9 0 28 6 43 13 14 8 33 13
42 11 9 -1 17 1 17 5 0 4 21 13 48 20 67 16 77 19 77 21 0 1 7 3 15 5 75 17
150 63 150 92 0 7 4 13 8 13 10 0 9 56 -1 66 -4 4 -9 -1 -13 -10z"/>
<path d="M277 352 c12 -11 23 -25 25 -32 2 -8 10 -21 18 -30 29 -33 50 -60 50
-66 0 -7 71 -96 85 -106 6 -4 6 -8 2 -8 -4 0 3 -11 16 -24 24 -24 60 -40 87
-39 22 0 68 22 50 23 -8 0 -35 19 -60 41 -172 157 -215 197 -234 217 -11 13
-30 28 -41 33 -18 9 -17 8 2 -9z"/>
</g>
</svg>
